<svg width="226" height="44" viewBox="0 0 226 44" fill="none" xmlns="http://www.w3.org/2000/svg">
<rect x="0.240234" y="0.5" width="225" height="43" rx="16" fill="#9D097C"/>
<path d="M25.6002 16.3V27.5H23.7602V18.06H19.2002V27.5H17.3602V16.3H25.6002ZM32.2606 19.292C33.3593 19.292 34.2979 19.7027 35.0766 20.524C35.8553 21.3347 36.2446 22.3267 36.2446 23.5C36.2446 24.684 35.8553 25.6813 35.0766 26.492C34.2979 27.3027 33.3593 27.708 32.2606 27.708C31.0446 27.708 30.1113 27.26 29.4606 26.364V30.7H27.7326V19.5H29.4606V20.652C30.1113 19.7453 31.0446 19.292 32.2606 19.292ZM30.1806 25.34C30.6606 25.82 31.2633 26.06 31.9886 26.06C32.7139 26.06 33.3166 25.82 33.7966 25.34C34.2766 24.8493 34.5166 24.236 34.5166 23.5C34.5166 22.764 34.2766 22.156 33.7966 21.676C33.3166 21.1853 32.7139 20.94 31.9886 20.94C31.2633 20.94 30.6606 21.1853 30.1806 21.676C29.7006 22.156 29.4606 22.764 29.4606 23.5C29.4606 24.236 29.7006 24.8493 30.1806 25.34ZM39.1707 24.236C39.2987 24.844 39.5921 25.3133 40.0507 25.644C40.5094 25.964 41.0694 26.124 41.7307 26.124C42.6481 26.124 43.3361 25.7933 43.7947 25.132L45.2187 25.964C44.4294 27.1267 43.2614 27.708 41.7147 27.708C40.4134 27.708 39.3627 27.3133 38.5627 26.524C37.7627 25.724 37.3627 24.716 37.3627 23.5C37.3627 22.3053 37.7574 21.308 38.5467 20.508C39.3361 19.6973 40.3494 19.292 41.5867 19.292C42.7601 19.292 43.7201 19.7027 44.4667 20.524C45.2241 21.3453 45.6027 22.3427 45.6027 23.516C45.6027 23.6973 45.5814 23.9373 45.5387 24.236H39.1707ZM39.1547 22.828H43.8587C43.7414 22.1773 43.4694 21.6867 43.0427 21.356C42.6267 21.0253 42.1361 20.86 41.5707 20.86C40.9307 20.86 40.3974 21.036 39.9707 21.388C39.5441 21.74 39.2721 22.22 39.1547 22.828ZM55.2832 19.5V27.5H53.6032V22.236L51.2992 25.9H51.0912L48.8032 22.252V27.5H47.1232V19.5H48.8832L51.2032 23.196L53.5232 19.5H55.2832ZM63.0715 19.5H64.3995V27.5H62.7035V22.412L58.6075 27.5H57.2795V19.5H58.9755V24.572L63.0715 19.5ZM72.5965 19.5V27.5H70.9005V24.812H69.9405L67.9085 27.5H65.8765L68.0365 24.652C67.4818 24.4707 67.0338 24.1507 66.6925 23.692C66.3618 23.2333 66.1965 22.7213 66.1965 22.156C66.1965 21.42 66.4578 20.796 66.9805 20.284C67.5138 19.7613 68.1965 19.5 69.0285 19.5H72.5965ZM69.1245 23.324H70.9005V21.068H69.1245C68.7725 21.068 68.4792 21.1693 68.2445 21.372C68.0098 21.5747 67.8925 21.852 67.8925 22.204C67.8925 22.5453 68.0098 22.8173 68.2445 23.02C68.4792 23.2227 68.7725 23.324 69.1245 23.324ZM87.1676 27.5H84.9756L80.5596 22.172V27.5H78.7196V16.3H80.5596V21.324L84.8156 16.3H87.0076L82.4796 21.756L87.1676 27.5ZM99.0802 16.3V27.5H97.2402V19.516L93.8322 25.148H93.6082L90.2002 19.5V27.5H88.3602V16.3H90.3442L93.7202 21.9L97.1122 16.3H99.0802ZM107.873 18.06H103.153V21.196H107.713V22.956H103.153V27.5H101.313V16.3H107.873V18.06ZM113.595 16.3H115.435V27.5H113.595V16.3ZM119.113 21.708C119.113 21.9747 119.257 22.188 119.545 22.348C119.843 22.4973 120.201 22.6307 120.617 22.748C121.043 22.8547 121.47 22.9827 121.897 23.132C122.323 23.2813 122.681 23.5373 122.969 23.9C123.267 24.252 123.417 24.7 123.417 25.244C123.417 26.012 123.118 26.6147 122.521 27.052C121.934 27.4893 121.193 27.708 120.297 27.708C119.507 27.708 118.83 27.5427 118.265 27.212C117.699 26.8813 117.289 26.4227 117.033 25.836L118.521 24.972C118.798 25.74 119.39 26.124 120.297 26.124C121.203 26.124 121.657 25.8253 121.657 25.228C121.657 24.972 121.507 24.764 121.209 24.604C120.921 24.444 120.563 24.3107 120.137 24.204C119.721 24.0867 119.299 23.9533 118.873 23.804C118.446 23.6547 118.083 23.4093 117.785 23.068C117.497 22.716 117.353 22.2733 117.353 21.74C117.353 21.004 117.63 20.412 118.185 19.964C118.75 19.516 119.449 19.292 120.281 19.292C120.942 19.292 121.529 19.4413 122.041 19.74C122.563 20.028 122.963 20.4333 123.241 20.956L121.785 21.772C121.507 21.164 121.006 20.86 120.281 20.86C119.95 20.86 119.673 20.9347 119.449 21.084C119.225 21.2227 119.113 21.4307 119.113 21.708ZM131.914 27.5H129.85L126.57 23.804V27.5H124.842V16.3H126.57V23.036L129.674 19.5H131.786L128.266 23.42L131.914 27.5ZM133.796 24.236C133.924 24.844 134.217 25.3133 134.676 25.644C135.134 25.964 135.694 26.124 136.356 26.124C137.273 26.124 137.961 25.7933 138.42 25.132L139.844 25.964C139.054 27.1267 137.886 27.708 136.34 27.708C135.038 27.708 133.988 27.3133 133.188 26.524C132.388 25.724 131.988 24.716 131.988 23.5C131.988 22.3053 132.382 21.308 133.172 20.508C133.961 19.6973 134.974 19.292 136.212 19.292C137.385 19.292 138.345 19.7027 139.092 20.524C139.849 21.3453 140.228 22.3427 140.228 23.516C140.228 23.6973 140.206 23.9373 140.164 24.236H133.796ZM133.78 22.828H138.484C138.366 22.1773 138.094 21.6867 137.668 21.356C137.252 21.0253 136.761 20.86 136.196 20.86C135.556 20.86 135.022 21.036 134.596 21.388C134.169 21.74 133.897 22.22 133.78 22.828ZM143.476 20.844C143.914 19.852 144.735 19.356 145.94 19.356V21.228C145.279 21.1853 144.703 21.3453 144.212 21.708C143.722 22.06 143.476 22.6467 143.476 23.468V27.5H141.748V19.5H143.476V20.844ZM155.425 19.292C156.342 19.292 157.084 19.5853 157.649 20.172C158.214 20.7587 158.497 21.564 158.497 22.588V27.5H156.769V22.764C156.769 22.1667 156.609 21.708 156.289 21.388C155.969 21.068 155.532 20.908 154.977 20.908C154.369 20.908 153.878 21.1 153.505 21.484C153.132 21.8573 152.945 22.4333 152.945 23.212V27.5H151.217V16.3H152.945V20.524C153.468 19.7027 154.294 19.292 155.425 19.292ZM166.694 19.5H168.422V27.5H166.694V26.348C166.043 27.2547 165.11 27.708 163.894 27.708C162.795 27.708 161.856 27.3027 161.078 26.492C160.299 25.6707 159.91 24.6733 159.91 23.5C159.91 22.316 160.299 21.3187 161.078 20.508C161.856 19.6973 162.795 19.292 163.894 19.292C165.11 19.292 166.043 19.74 166.694 20.636V19.5ZM162.358 25.34C162.838 25.82 163.44 26.06 164.166 26.06C164.891 26.06 165.494 25.82 165.974 25.34C166.454 24.8493 166.694 24.236 166.694 23.5C166.694 22.764 166.454 22.156 165.974 21.676C165.494 21.1853 164.891 20.94 164.166 20.94C163.44 20.94 162.838 21.1853 162.358 21.676C161.878 22.156 161.638 22.764 161.638 23.5C161.638 24.236 161.878 24.8493 162.358 25.34ZM174.644 19.292C175.561 19.292 176.302 19.5853 176.868 20.172C177.433 20.7587 177.716 21.564 177.716 22.588V27.5H175.988V22.764C175.988 22.1667 175.828 21.708 175.508 21.388C175.188 21.068 174.75 20.908 174.196 20.908C173.588 20.908 173.097 21.1 172.724 21.484C172.35 21.8573 172.164 22.4333 172.164 23.212V27.5H170.436V19.5H172.164V20.524C172.686 19.7027 173.513 19.292 174.644 19.292ZM184.812 19.5H186.652L183.58 27.756C182.812 29.8253 181.511 30.8067 179.676 30.7V29.084C180.22 29.116 180.657 28.9987 180.988 28.732C181.319 28.476 181.591 28.0707 181.804 27.516L181.884 27.356L178.492 19.5H180.38L182.764 25.308L184.812 19.5ZM196.469 19.292C197.375 19.292 198.106 19.5853 198.661 20.172C199.215 20.7587 199.493 21.548 199.493 22.54V27.5H197.765V22.652C197.765 22.0973 197.626 21.6707 197.349 21.372C197.071 21.0627 196.693 20.908 196.213 20.908C195.679 20.908 195.253 21.084 194.933 21.436C194.623 21.788 194.469 22.316 194.469 23.02V27.5H192.741V22.652C192.741 22.0973 192.607 21.6707 192.341 21.372C192.085 21.0627 191.717 20.908 191.237 20.908C190.714 20.908 190.287 21.0893 189.957 21.452C189.626 21.804 189.461 22.3267 189.461 23.02V27.5H187.733V19.5H189.461V20.46C189.973 19.6813 190.735 19.292 191.749 19.292C192.773 19.292 193.53 19.7133 194.021 20.556C194.554 19.7133 195.37 19.292 196.469 19.292ZM206.578 19.5H208.418L205.346 27.756C204.578 29.8253 203.276 30.8067 201.442 30.7V29.084C201.986 29.116 202.423 28.9987 202.754 28.732C203.084 28.476 203.356 28.0707 203.57 27.516L203.65 27.356L200.258 19.5H202.146L204.53 25.308L206.578 19.5Z" fill="white"/>
</svg>
