<svg width="226" height="44" fill="none" xmlns="http://www.w3.org/2000/svg"><rect x=".24" y=".5" width="225" height="43" rx="16" fill="#9D097C"/><path d="M25.6 16.3v11.2h-1.84v-9.44H19.2v9.44h-1.84V16.3h8.24Zm6.66 2.992c1.1 0 2.038.41 2.817 1.232.778.81 1.168 1.803 1.168 2.976 0 1.184-.39 2.181-1.168 2.992-.78.81-1.718 1.216-2.816 1.216-1.216 0-2.15-.448-2.8-1.344V30.7h-1.728V19.5h1.728v1.152c.65-.907 1.584-1.36 2.8-1.36Zm-2.08 6.048c.48.48 1.083.72 1.809.72.725 0 1.328-.24 1.808-.72.48-.49.72-1.104.72-1.84s-.24-1.344-.72-1.824c-.48-.49-1.083-.736-1.808-.736-.726 0-1.328.245-1.808.736-.48.48-.72 1.088-.72 1.824s.24 1.35.72 1.84Zm8.99-1.104c.129.608.422 1.077.88 1.408.46.32 1.02.48 1.68.48.918 0 1.606-.33 2.065-.992l1.424.832c-.79 1.163-1.958 1.744-3.504 1.744-1.302 0-2.352-.395-3.152-1.184-.8-.8-1.2-1.808-1.2-3.024 0-1.195.394-2.192 1.184-2.992.79-.81 1.802-1.216 3.04-1.216 1.173 0 2.133.41 2.88 1.232.757.821 1.136 1.819 1.136 2.992 0 .181-.022.421-.064.72H39.17Zm-.015-1.408h4.704c-.118-.65-.39-1.141-.816-1.472a2.294 2.294 0 0 0-1.472-.496c-.64 0-1.174.176-1.6.528-.427.352-.699.832-.816 1.44ZM55.283 19.5v8h-1.68v-5.264L51.3 25.9h-.208l-2.288-3.648V27.5h-1.68v-8h1.76l2.32 3.696 2.32-3.696h1.76Zm7.788 0H64.4v8h-1.697v-5.088L58.608 27.5H57.28v-8h1.696v5.072l4.096-5.072Zm9.526 0v8H70.9v-2.688h-.96L67.91 27.5h-2.033l2.16-2.848a2.665 2.665 0 0 1-1.344-.96 2.565 2.565 0 0 1-.495-1.536c0-.736.26-1.36.784-1.872.533-.523 1.216-.784 2.047-.784h3.569Zm-3.472 3.824H70.9v-2.256h-1.776c-.352 0-.645.101-.88.304-.234.203-.352.48-.352.832 0 .341.118.613.353.816.234.203.527.304.88.304ZM87.167 27.5h-2.192l-4.416-5.328V27.5h-1.84V16.3h1.84v5.024l4.256-5.024h2.192l-4.528 5.456 4.688 5.744ZM99.08 16.3v11.2h-1.84v-7.984l-3.408 5.632h-.224L90.2 19.5v8h-1.84V16.3h1.984l3.376 5.6 3.392-5.6h1.968Zm8.793 1.76h-4.72v3.136h4.56v1.76h-4.56V27.5h-1.84V16.3h6.56v1.76Zm5.722-1.76h1.84v11.2h-1.84V16.3Zm5.518 5.408c0 .267.144.48.432.64.298.15.656.283 1.072.4a14.7 14.7 0 0 1 1.28.384c.426.15.784.405 1.072.768.298.352.448.8.448 1.344 0 .768-.299 1.37-.896 1.808-.587.437-1.328.656-2.224.656-.79 0-1.467-.165-2.032-.496a2.906 2.906 0 0 1-1.232-1.376l1.488-.864c.277.768.869 1.152 1.776 1.152.906 0 1.36-.299 1.36-.896 0-.256-.15-.464-.448-.624a4.44 4.44 0 0 0-1.072-.4 20.6 20.6 0 0 1-1.264-.4 2.53 2.53 0 0 1-1.088-.736c-.288-.352-.432-.795-.432-1.328 0-.736.277-1.328.832-1.776.565-.448 1.264-.672 2.096-.672.661 0 1.248.15 1.76.448.522.288.922.693 1.2 1.216l-1.456.816c-.278-.608-.779-.912-1.504-.912-.331 0-.608.075-.832.224a.686.686 0 0 0-.336.624Zm12.801 5.792h-2.064l-3.28-3.696V27.5h-1.728V16.3h1.728v6.736l3.104-3.536h2.112l-3.52 3.92 3.648 4.08Zm1.882-3.264c.128.608.421 1.077.88 1.408.458.32 1.018.48 1.68.48.917 0 1.605-.33 2.064-.992l1.424.832c-.79 1.163-1.958 1.744-3.504 1.744-1.302 0-2.352-.395-3.152-1.184-.8-.8-1.2-1.808-1.2-3.024 0-1.195.394-2.192 1.184-2.992.789-.81 1.802-1.216 3.04-1.216 1.173 0 2.133.41 2.88 1.232.757.821 1.136 1.819 1.136 2.992 0 .181-.022.421-.064.72h-6.368Zm-.016-1.408h4.704c-.118-.65-.39-1.141-.816-1.472a2.295 2.295 0 0 0-1.472-.496c-.64 0-1.174.176-1.6.528-.427.352-.699.832-.816 1.44Zm9.696-1.984c.438-.992 1.259-1.488 2.464-1.488v1.872c-.661-.043-1.237.117-1.728.48-.49.352-.736.939-.736 1.76V27.5h-1.728v-8h1.728v1.344Zm11.949-1.552c.917 0 1.659.293 2.224.88.565.587.848 1.392.848 2.416V27.5h-1.728v-4.736c0-.597-.16-1.056-.48-1.376-.32-.32-.757-.48-1.312-.48-.608 0-1.099.192-1.472.576-.373.373-.56.95-.56 1.728V27.5h-1.728V16.3h1.728v4.224c.523-.821 1.349-1.232 2.48-1.232Zm11.269.208h1.728v8h-1.728v-1.152c-.651.907-1.584 1.36-2.8 1.36-1.099 0-2.038-.405-2.816-1.216-.779-.821-1.168-1.819-1.168-2.992 0-1.184.389-2.181 1.168-2.992.778-.81 1.717-1.216 2.816-1.216 1.216 0 2.149.448 2.8 1.344V19.5Zm-4.336 5.84c.48.48 1.082.72 1.808.72.725 0 1.328-.24 1.808-.72.48-.49.72-1.104.72-1.84s-.24-1.344-.72-1.824c-.48-.49-1.083-.736-1.808-.736-.726 0-1.328.245-1.808.736-.48.48-.72 1.088-.72 1.824s.24 1.35.72 1.84Zm12.286-6.048c.917 0 1.658.293 2.224.88.565.587.848 1.392.848 2.416V27.5h-1.728v-4.736c0-.597-.16-1.056-.48-1.376-.32-.32-.758-.48-1.312-.48-.608 0-1.099.192-1.472.576-.374.373-.56.95-.56 1.728V27.5h-1.728v-8h1.728v1.024c.522-.821 1.349-1.232 2.48-1.232Zm10.168.208h1.84l-3.072 8.256c-.768 2.07-2.069 3.05-3.904 2.944v-1.616c.544.032.981-.085 1.312-.352.331-.256.603-.661.816-1.216l.08-.16-3.392-7.856h1.888l2.384 5.808 2.048-5.808Zm11.657-.208c.906 0 1.637.293 2.192.88.554.587.832 1.376.832 2.368v4.96h-1.728v-4.848c0-.555-.139-.981-.416-1.28-.278-.31-.656-.464-1.136-.464-.534 0-.96.176-1.28.528-.31.352-.464.88-.464 1.584v4.48h-1.728v-4.848c0-.555-.134-.981-.4-1.28-.256-.31-.624-.464-1.104-.464-.523 0-.95.181-1.28.544-.331.352-.496.875-.496 1.568v4.48h-1.728v-8h1.728v.96c.512-.779 1.274-1.168 2.288-1.168 1.024 0 1.781.421 2.272 1.264.533-.843 1.349-1.264 2.448-1.264Zm10.109.208h1.84l-3.072 8.256c-.768 2.07-2.07 3.05-3.904 2.944v-1.616c.544.032.981-.085 1.312-.352.33-.256.602-.661.816-1.216l.08-.16-3.392-7.856h1.888l2.384 5.808 2.048-5.808Z" fill="#fff"/></svg>